<mxfile host="app.diagrams.net" agent="Mozilla/5.0 (Macintosh; Intel Mac OS X 10_15_7) AppleWebKit/605.1.15 (KHTML, like Gecko) Version/17.4.1 Safari/605.1.15" version="26.0.11">
  <diagram name="Page-1" id="ZxRflP-KnPYO2ml8sn7h">
    <mxGraphModel dx="1811" dy="667" grid="1" gridSize="10" guides="1" tooltips="1" connect="1" arrows="1" fold="1" page="1" pageScale="1" pageWidth="827" pageHeight="1169" background="#ffffff" math="0" shadow="0">
      <root>
        <mxCell id="0" />
        <mxCell id="1" parent="0" />
        <mxCell id="jDPvOcWKYuuKHxX7_iyQ-38" value="" style="rounded=1;whiteSpace=wrap;html=1;fillColor=none;dashed=1;" vertex="1" parent="1">
          <mxGeometry x="427" y="122" width="293" height="388" as="geometry" />
        </mxCell>
        <mxCell id="jDPvOcWKYuuKHxX7_iyQ-37" value="" style="rounded=1;whiteSpace=wrap;html=1;fillColor=none;dashed=1;" vertex="1" parent="1">
          <mxGeometry y="122" width="400" height="388" as="geometry" />
        </mxCell>
        <mxCell id="jDPvOcWKYuuKHxX7_iyQ-1" value="&lt;font style=&quot;font-size: 20px;&quot;&gt;&lt;b&gt;Integration Model&lt;/b&gt;&lt;/font&gt; (how the tables are related)" style="text;html=1;align=center;verticalAlign=middle;whiteSpace=wrap;rounded=0;" vertex="1" parent="1">
          <mxGeometry x="-30" y="30" width="360" height="50" as="geometry" />
        </mxCell>
        <mxCell id="jDPvOcWKYuuKHxX7_iyQ-2" value="crm_cust_info" style="swimlane;fontStyle=0;childLayout=stackLayout;horizontal=1;startSize=30;horizontalStack=0;resizeParent=1;resizeParentMax=0;resizeLast=0;collapsible=1;marginBottom=0;whiteSpace=wrap;html=1;rounded=1;fillColor=#dae8fc;strokeColor=#6c8ebf;fontSize=16;" vertex="1" parent="1">
          <mxGeometry x="210" y="332" width="140" height="109" as="geometry" />
        </mxCell>
        <mxCell id="jDPvOcWKYuuKHxX7_iyQ-3" value="cst_id" style="text;strokeColor=none;fillColor=none;align=left;verticalAlign=middle;spacingLeft=4;spacingRight=4;overflow=hidden;points=[[0,0.5],[1,0.5]];portConstraint=eastwest;rotatable=0;whiteSpace=wrap;html=1;fontSize=16;" vertex="1" parent="jDPvOcWKYuuKHxX7_iyQ-2">
          <mxGeometry y="30" width="140" height="30" as="geometry" />
        </mxCell>
        <mxCell id="jDPvOcWKYuuKHxX7_iyQ-24" value="cst_key" style="text;strokeColor=none;fillColor=none;align=left;verticalAlign=middle;spacingLeft=4;spacingRight=4;overflow=hidden;points=[[0,0.5],[1,0.5]];portConstraint=eastwest;rotatable=0;whiteSpace=wrap;html=1;fontSize=16;" vertex="1" parent="jDPvOcWKYuuKHxX7_iyQ-2">
          <mxGeometry y="60" width="140" height="30" as="geometry" />
        </mxCell>
        <mxCell id="jDPvOcWKYuuKHxX7_iyQ-45" value="CUSTOMER" style="text;html=1;strokeColor=#82b366;fillColor=#d5e8d4;align=center;verticalAlign=middle;whiteSpace=wrap;overflow=hidden;fontStyle=1" vertex="1" parent="jDPvOcWKYuuKHxX7_iyQ-2">
          <mxGeometry y="90" width="140" height="19" as="geometry" />
        </mxCell>
        <mxCell id="jDPvOcWKYuuKHxX7_iyQ-6" value="Customer Info" style="text;html=1;align=center;verticalAlign=middle;resizable=0;points=[];autosize=1;strokeColor=none;fillColor=none;" vertex="1" parent="1">
          <mxGeometry x="230" y="310" width="100" height="30" as="geometry" />
        </mxCell>
        <mxCell id="jDPvOcWKYuuKHxX7_iyQ-7" value="crm_prd_info" style="swimlane;fontStyle=0;childLayout=stackLayout;horizontal=1;startSize=30;horizontalStack=0;resizeParent=1;resizeParentMax=0;resizeLast=0;collapsible=1;marginBottom=0;whiteSpace=wrap;html=1;rounded=1;fillColor=#dae8fc;strokeColor=#6c8ebf;fontSize=16;" vertex="1" parent="1">
          <mxGeometry x="210" y="182" width="140" height="80" as="geometry" />
        </mxCell>
        <mxCell id="jDPvOcWKYuuKHxX7_iyQ-8" value="prd_key" style="text;strokeColor=none;fillColor=none;align=left;verticalAlign=middle;spacingLeft=4;spacingRight=4;overflow=hidden;points=[[0,0.5],[1,0.5]];portConstraint=eastwest;rotatable=0;whiteSpace=wrap;html=1;fontSize=16;" vertex="1" parent="jDPvOcWKYuuKHxX7_iyQ-7">
          <mxGeometry y="30" width="140" height="30" as="geometry" />
        </mxCell>
        <mxCell id="jDPvOcWKYuuKHxX7_iyQ-43" value="PRODUCT" style="text;html=1;strokeColor=#b85450;fillColor=#f8cecc;align=center;verticalAlign=middle;whiteSpace=wrap;overflow=hidden;fontStyle=1" vertex="1" parent="jDPvOcWKYuuKHxX7_iyQ-7">
          <mxGeometry y="60" width="140" height="20" as="geometry" />
        </mxCell>
        <mxCell id="jDPvOcWKYuuKHxX7_iyQ-9" value="Current &amp;amp; Hist Product Info" style="text;html=1;align=center;verticalAlign=middle;resizable=0;points=[];autosize=1;strokeColor=none;fillColor=none;" vertex="1" parent="1">
          <mxGeometry x="195" y="160" width="170" height="30" as="geometry" />
        </mxCell>
        <mxCell id="jDPvOcWKYuuKHxX7_iyQ-10" value="crm_sales_details" style="swimlane;fontStyle=0;childLayout=stackLayout;horizontal=1;startSize=30;horizontalStack=0;resizeParent=1;resizeParentMax=0;resizeLast=0;collapsible=1;marginBottom=0;whiteSpace=wrap;html=1;rounded=1;fillColor=#dae8fc;strokeColor=#6c8ebf;fontSize=16;" vertex="1" parent="1">
          <mxGeometry x="10" y="200" width="140" height="109" as="geometry" />
        </mxCell>
        <mxCell id="jDPvOcWKYuuKHxX7_iyQ-11" value="sls_prd_key" style="text;strokeColor=none;fillColor=none;align=left;verticalAlign=middle;spacingLeft=4;spacingRight=4;overflow=hidden;points=[[0,0.5],[1,0.5]];portConstraint=eastwest;rotatable=0;whiteSpace=wrap;html=1;fontSize=16;" vertex="1" parent="jDPvOcWKYuuKHxX7_iyQ-10">
          <mxGeometry y="30" width="140" height="30" as="geometry" />
        </mxCell>
        <mxCell id="jDPvOcWKYuuKHxX7_iyQ-13" value="sls_cst_id" style="text;strokeColor=none;fillColor=none;align=left;verticalAlign=middle;spacingLeft=4;spacingRight=4;overflow=hidden;points=[[0,0.5],[1,0.5]];portConstraint=eastwest;rotatable=0;whiteSpace=wrap;html=1;fontSize=16;" vertex="1" parent="jDPvOcWKYuuKHxX7_iyQ-10">
          <mxGeometry y="60" width="140" height="30" as="geometry" />
        </mxCell>
        <mxCell id="jDPvOcWKYuuKHxX7_iyQ-50" value="TRANSACTION" style="text;html=1;strokeColor=#9673a6;fillColor=#e1d5e7;align=center;verticalAlign=middle;whiteSpace=wrap;overflow=hidden;fontStyle=1" vertex="1" parent="jDPvOcWKYuuKHxX7_iyQ-10">
          <mxGeometry y="90" width="140" height="19" as="geometry" />
        </mxCell>
        <mxCell id="jDPvOcWKYuuKHxX7_iyQ-12" value="Transaction records" style="text;html=1;align=center;verticalAlign=middle;resizable=0;points=[];autosize=1;strokeColor=none;fillColor=none;" vertex="1" parent="1">
          <mxGeometry x="15" y="178" width="130" height="30" as="geometry" />
        </mxCell>
        <mxCell id="jDPvOcWKYuuKHxX7_iyQ-14" style="edgeStyle=orthogonalEdgeStyle;rounded=0;orthogonalLoop=1;jettySize=auto;html=1;entryX=0;entryY=0.5;entryDx=0;entryDy=0;" edge="1" parent="1" source="jDPvOcWKYuuKHxX7_iyQ-11" target="jDPvOcWKYuuKHxX7_iyQ-8">
          <mxGeometry relative="1" as="geometry" />
        </mxCell>
        <mxCell id="jDPvOcWKYuuKHxX7_iyQ-15" style="edgeStyle=orthogonalEdgeStyle;rounded=0;orthogonalLoop=1;jettySize=auto;html=1;entryX=0;entryY=0.5;entryDx=0;entryDy=0;" edge="1" parent="1" source="jDPvOcWKYuuKHxX7_iyQ-13" target="jDPvOcWKYuuKHxX7_iyQ-3">
          <mxGeometry relative="1" as="geometry" />
        </mxCell>
        <mxCell id="jDPvOcWKYuuKHxX7_iyQ-20" value="erp_cust_az12" style="swimlane;fontStyle=0;childLayout=stackLayout;horizontal=1;startSize=30;horizontalStack=0;resizeParent=1;resizeParentMax=0;resizeLast=0;collapsible=1;marginBottom=0;whiteSpace=wrap;html=1;rounded=1;fillColor=#ffe6cc;strokeColor=#d79b00;fontSize=16;" vertex="1" parent="1">
          <mxGeometry x="500" y="305" width="140" height="79" as="geometry" />
        </mxCell>
        <mxCell id="jDPvOcWKYuuKHxX7_iyQ-22" value="cid" style="text;strokeColor=none;fillColor=none;align=left;verticalAlign=middle;spacingLeft=4;spacingRight=4;overflow=hidden;points=[[0,0.5],[1,0.5]];portConstraint=eastwest;rotatable=0;whiteSpace=wrap;html=1;fontSize=16;" vertex="1" parent="jDPvOcWKYuuKHxX7_iyQ-20">
          <mxGeometry y="30" width="140" height="30" as="geometry" />
        </mxCell>
        <mxCell id="jDPvOcWKYuuKHxX7_iyQ-46" value="CUSTOMER" style="text;html=1;strokeColor=#82b366;fillColor=#d5e8d4;align=center;verticalAlign=middle;whiteSpace=wrap;overflow=hidden;fontStyle=1" vertex="1" parent="jDPvOcWKYuuKHxX7_iyQ-20">
          <mxGeometry y="60" width="140" height="19" as="geometry" />
        </mxCell>
        <mxCell id="jDPvOcWKYuuKHxX7_iyQ-23" value="More customer info (bdate, gen)" style="text;html=1;align=center;verticalAlign=middle;resizable=0;points=[];autosize=1;strokeColor=none;fillColor=none;" vertex="1" parent="1">
          <mxGeometry x="475" y="283" width="190" height="30" as="geometry" />
        </mxCell>
        <mxCell id="jDPvOcWKYuuKHxX7_iyQ-26" style="edgeStyle=orthogonalEdgeStyle;rounded=0;orthogonalLoop=1;jettySize=auto;html=1;entryX=1;entryY=0.5;entryDx=0;entryDy=0;" edge="1" parent="1" source="jDPvOcWKYuuKHxX7_iyQ-22" target="jDPvOcWKYuuKHxX7_iyQ-24">
          <mxGeometry relative="1" as="geometry">
            <Array as="points">
              <mxPoint x="460" y="351" />
              <mxPoint x="460" y="407" />
            </Array>
          </mxGeometry>
        </mxCell>
        <mxCell id="jDPvOcWKYuuKHxX7_iyQ-27" value="erp_loc_a101" style="swimlane;fontStyle=0;childLayout=stackLayout;horizontal=1;startSize=30;horizontalStack=0;resizeParent=1;resizeParentMax=0;resizeLast=0;collapsible=1;marginBottom=0;whiteSpace=wrap;html=1;rounded=1;fillColor=#ffe6cc;strokeColor=#d79b00;fontSize=16;" vertex="1" parent="1">
          <mxGeometry x="505" y="411" width="140" height="79" as="geometry" />
        </mxCell>
        <mxCell id="jDPvOcWKYuuKHxX7_iyQ-28" value="cid" style="text;strokeColor=none;fillColor=none;align=left;verticalAlign=middle;spacingLeft=4;spacingRight=4;overflow=hidden;points=[[0,0.5],[1,0.5]];portConstraint=eastwest;rotatable=0;whiteSpace=wrap;html=1;fontSize=16;" vertex="1" parent="jDPvOcWKYuuKHxX7_iyQ-27">
          <mxGeometry y="30" width="140" height="30" as="geometry" />
        </mxCell>
        <mxCell id="jDPvOcWKYuuKHxX7_iyQ-49" value="CUSTOMER" style="text;html=1;strokeColor=#82b366;fillColor=#d5e8d4;align=center;verticalAlign=middle;whiteSpace=wrap;overflow=hidden;fontStyle=1" vertex="1" parent="jDPvOcWKYuuKHxX7_iyQ-27">
          <mxGeometry y="60" width="140" height="19" as="geometry" />
        </mxCell>
        <mxCell id="jDPvOcWKYuuKHxX7_iyQ-29" value="More customer info (country)" style="text;html=1;align=center;verticalAlign=middle;resizable=0;points=[];autosize=1;strokeColor=none;fillColor=none;" vertex="1" parent="1">
          <mxGeometry x="485" y="389" width="180" height="30" as="geometry" />
        </mxCell>
        <mxCell id="jDPvOcWKYuuKHxX7_iyQ-30" style="edgeStyle=orthogonalEdgeStyle;rounded=0;orthogonalLoop=1;jettySize=auto;html=1;entryX=1;entryY=0.5;entryDx=0;entryDy=0;" edge="1" parent="1" source="jDPvOcWKYuuKHxX7_iyQ-28" target="jDPvOcWKYuuKHxX7_iyQ-24">
          <mxGeometry relative="1" as="geometry">
            <Array as="points">
              <mxPoint x="460" y="457" />
              <mxPoint x="460" y="407" />
            </Array>
          </mxGeometry>
        </mxCell>
        <mxCell id="jDPvOcWKYuuKHxX7_iyQ-31" value="erp_px_cat_g1v2" style="swimlane;fontStyle=0;childLayout=stackLayout;horizontal=1;startSize=30;horizontalStack=0;resizeParent=1;resizeParentMax=0;resizeLast=0;collapsible=1;marginBottom=0;whiteSpace=wrap;html=1;rounded=1;fillColor=#ffe6cc;strokeColor=#d79b00;fontSize=16;" vertex="1" parent="1">
          <mxGeometry x="500" y="182" width="140" height="80" as="geometry" />
        </mxCell>
        <mxCell id="jDPvOcWKYuuKHxX7_iyQ-32" value="id" style="text;strokeColor=none;fillColor=none;align=left;verticalAlign=middle;spacingLeft=4;spacingRight=4;overflow=hidden;points=[[0,0.5],[1,0.5]];portConstraint=eastwest;rotatable=0;whiteSpace=wrap;html=1;fontSize=16;" vertex="1" parent="jDPvOcWKYuuKHxX7_iyQ-31">
          <mxGeometry y="30" width="140" height="30" as="geometry" />
        </mxCell>
        <mxCell id="jDPvOcWKYuuKHxX7_iyQ-44" value="PRODUCT" style="text;html=1;strokeColor=#b85450;fillColor=#f8cecc;align=center;verticalAlign=middle;whiteSpace=wrap;overflow=hidden;fontStyle=1" vertex="1" parent="jDPvOcWKYuuKHxX7_iyQ-31">
          <mxGeometry y="60" width="140" height="20" as="geometry" />
        </mxCell>
        <mxCell id="jDPvOcWKYuuKHxX7_iyQ-33" value="More customer info (bdate, gen)" style="text;html=1;align=center;verticalAlign=middle;resizable=0;points=[];autosize=1;strokeColor=none;fillColor=none;" vertex="1" parent="1">
          <mxGeometry x="475" y="160" width="190" height="30" as="geometry" />
        </mxCell>
        <mxCell id="jDPvOcWKYuuKHxX7_iyQ-36" style="edgeStyle=orthogonalEdgeStyle;rounded=0;orthogonalLoop=1;jettySize=auto;html=1;entryX=1;entryY=0.5;entryDx=0;entryDy=0;" edge="1" parent="1" source="jDPvOcWKYuuKHxX7_iyQ-32" target="jDPvOcWKYuuKHxX7_iyQ-8">
          <mxGeometry relative="1" as="geometry" />
        </mxCell>
        <mxCell id="jDPvOcWKYuuKHxX7_iyQ-40" value="&lt;b&gt;&lt;font style=&quot;font-size: 20px;&quot;&gt;CRM&lt;/font&gt;&lt;/b&gt;" style="rounded=1;whiteSpace=wrap;html=1;fillColor=#dae8fc;strokeColor=#6c8ebf;" vertex="1" parent="1">
          <mxGeometry x="140" y="100" width="120" height="40" as="geometry" />
        </mxCell>
        <mxCell id="jDPvOcWKYuuKHxX7_iyQ-41" value="&lt;b&gt;&lt;font style=&quot;font-size: 20px;&quot;&gt;ERP&lt;/font&gt;&lt;/b&gt;" style="rounded=1;whiteSpace=wrap;html=1;fillColor=#ffe6cc;strokeColor=#d79b00;" vertex="1" parent="1">
          <mxGeometry x="510" y="100" width="120" height="40" as="geometry" />
        </mxCell>
      </root>
    </mxGraphModel>
  </diagram>
</mxfile>
